<mxfile host="drawio-plugin" modified="2022-11-23T04:37:08.091Z" agent="5.0 (Windows NT 6.2; Win64; x64) AppleWebKit/537.36 (KHTML, like Gecko) Chrome/98.0.4758.102 Safari/537.36" version="15.5.4" etag="TiumTpu6MMiagmBCnXbj" type="embed"><diagram id="6vZArWsuG8NKM5YR7WvF" name="Page-1"><mxGraphModel dx="649" dy="344" grid="1" gridSize="10" guides="1" tooltips="1" connect="1" arrows="1" fold="1" page="1" pageScale="1" pageWidth="850" pageHeight="1100" math="0" shadow="0"><root><mxCell id="0"/><mxCell id="1" parent="0"/><mxCell id="2" value=":ScrabbleModel" style="shape=umlLifeline;perimeter=lifelinePerimeter;whiteSpace=wrap;html=1;container=1;collapsible=0;recursiveResize=0;outlineConnect=0;" vertex="1" parent="1"><mxGeometry x="250" y="30" width="100" height="300" as="geometry"/></mxCell><mxCell id="5" value="" style="html=1;points=[];perimeter=orthogonalPerimeter;" vertex="1" parent="2"><mxGeometry x="45" y="60" width="10" height="220" as="geometry"/></mxCell><mxCell id="7" value="" style="html=1;points=[];perimeter=orthogonalPerimeter;fontSize=18;" vertex="1" parent="2"><mxGeometry x="50" y="100" width="10" height="100" as="geometry"/></mxCell><mxCell id="8" value="&lt;font style=&quot;font-size: 12px&quot;&gt;getTopPlayer()&lt;/font&gt;" style="edgeStyle=orthogonalEdgeStyle;html=1;align=left;spacingLeft=2;endArrow=block;rounded=0;entryX=1;entryY=0;fontSize=18;" edge="1" target="7" parent="2"><mxGeometry relative="1" as="geometry"><mxPoint x="55" y="80" as="sourcePoint"/><Array as="points"><mxPoint x="85" y="80"/></Array></mxGeometry></mxCell><mxCell id="6" value="&lt;font size=&quot;3&quot;&gt;End Game&lt;/font&gt;" style="ellipse;whiteSpace=wrap;html=1;" vertex="1" parent="1"><mxGeometry x="20" y="20" width="120" height="80" as="geometry"/></mxCell><mxCell id="9" value="players:List&amp;lt;Player&amp;gt;" style="shape=umlLifeline;perimeter=lifelinePerimeter;whiteSpace=wrap;html=1;container=1;collapsible=0;recursiveResize=0;outlineConnect=0;fontSize=12;" vertex="1" parent="1"><mxGeometry x="390" y="30" width="110" height="300" as="geometry"/></mxCell><mxCell id="12" value="" style="html=1;points=[];perimeter=orthogonalPerimeter;fontSize=12;" vertex="1" parent="9"><mxGeometry x="50" y="130" width="10" height="30" as="geometry"/></mxCell><mxCell id="10" value="loop" style="shape=umlFrame;whiteSpace=wrap;html=1;fontSize=12;" vertex="1" parent="1"><mxGeometry x="110" y="140" width="400" height="70" as="geometry"/></mxCell><mxCell id="11" value="[for Player:players]" style="text;html=1;strokeColor=none;fillColor=none;align=center;verticalAlign=middle;whiteSpace=wrap;rounded=0;fontSize=12;" vertex="1" parent="1"><mxGeometry x="170" y="140" width="120" height="30" as="geometry"/></mxCell><mxCell id="13" value="getScore()" style="html=1;verticalAlign=bottom;endArrow=block;rounded=0;fontSize=12;exitX=1.295;exitY=0.287;exitDx=0;exitDy=0;exitPerimeter=0;" edge="1" target="12" parent="1" source="7"><mxGeometry relative="1" as="geometry"><mxPoint x="405" y="130" as="sourcePoint"/></mxGeometry></mxCell><mxCell id="14" value="score" style="html=1;verticalAlign=bottom;endArrow=open;dashed=1;endSize=8;exitX=0;exitY=0.95;rounded=0;fontSize=12;entryX=1.16;entryY=0.576;entryDx=0;entryDy=0;entryPerimeter=0;" edge="1" source="12" parent="1" target="7"><mxGeometry relative="1" as="geometry"><mxPoint x="405" y="206" as="targetPoint"/></mxGeometry></mxCell><mxCell id="15" value=":OptionPaneHandler" style="shape=umlLifeline;perimeter=lifelinePerimeter;whiteSpace=wrap;html=1;container=1;collapsible=0;recursiveResize=0;outlineConnect=0;fontSize=12;" vertex="1" parent="1"><mxGeometry x="650" y="30" width="120" height="300" as="geometry"/></mxCell><mxCell id="16" value="displayMessage()" style="html=1;verticalAlign=bottom;endArrow=block;rounded=0;fontSize=12;exitX=0.89;exitY=0.979;exitDx=0;exitDy=0;exitPerimeter=0;" edge="1" parent="1" source="5" target="15"><mxGeometry width="80" relative="1" as="geometry"><mxPoint x="305" y="250" as="sourcePoint"/><mxPoint x="385" y="250" as="targetPoint"/></mxGeometry></mxCell><mxCell id="19" value="name" style="html=1;verticalAlign=bottom;endArrow=open;dashed=1;endSize=8;exitX=0;exitY=0.95;rounded=0;fontSize=12;entryX=0.986;entryY=0.762;entryDx=0;entryDy=0;entryPerimeter=0;" edge="1" source="17" parent="1"><mxGeometry relative="1" as="geometry"><mxPoint x="304.8599999999999" y="272.64" as="targetPoint"/></mxGeometry></mxCell><mxCell id="18" value="getName()" style="html=1;verticalAlign=bottom;endArrow=block;entryX=0;entryY=0;rounded=0;fontSize=12;exitX=1.033;exitY=0.687;exitDx=0;exitDy=0;exitPerimeter=0;" edge="1" target="17" parent="1" source="5"><mxGeometry relative="1" as="geometry"><mxPoint x="307.2399999999999" y="252.62000000000006" as="sourcePoint"/></mxGeometry></mxCell><mxCell id="20" value="winner:Player" style="shape=umlLifeline;perimeter=lifelinePerimeter;whiteSpace=wrap;html=1;container=1;collapsible=0;recursiveResize=0;outlineConnect=0;fontSize=12;" vertex="1" parent="1"><mxGeometry x="520" y="30" width="100" height="300" as="geometry"/></mxCell><mxCell id="17" value="" style="html=1;points=[];perimeter=orthogonalPerimeter;fontSize=12;" vertex="1" parent="20"><mxGeometry x="45" y="210" width="10" height="35" as="geometry"/></mxCell></root></mxGraphModel></diagram></mxfile>